<?xml version="1.0" encoding="UTF-8"?>
<svg version="1.1" xmlns="http://www.w3.org/2000/svg" width="200" height="200">
<path d="M0 0 C3.36335594 1.45745424 5.54534005 3.31117854 8.109375 5.9140625 C9.24052734 7.05488281 9.24052734 7.05488281 10.39453125 8.21875 C11.17183594 9.0128125 11.94914062 9.806875 12.75 10.625 C13.93916016 11.82769531 13.93916016 11.82769531 15.15234375 13.0546875 C17.10614493 15.03202846 19.05512103 17.01388909 21 19 C24.36335594 17.54254576 26.54534005 15.68882146 29.109375 13.0859375 C30.24052734 11.94511719 30.24052734 11.94511719 31.39453125 10.78125 C32.17183594 9.9871875 32.94914062 9.193125 33.75 8.375 C34.93916016 7.17230469 34.93916016 7.17230469 36.15234375 5.9453125 C38.10614493 3.96797154 40.05512103 1.98611091 42 0 C45.46629835 1.48653506 47.69022036 3.45722351 50.328125 6.1328125 C51.12734375 6.93847656 51.9265625 7.74414062 52.75 8.57421875 C53.575 9.41597656 54.4 10.25773437 55.25 11.125 C56.09046875 11.97449219 56.9309375 12.82398438 57.796875 13.69921875 C59.86915683 15.79504923 61.93662393 17.89540713 64 20 C62.54254576 23.36335594 60.68882146 25.54534005 58.0859375 28.109375 C56.94511719 29.24052734 56.94511719 29.24052734 55.78125 30.39453125 C54.9871875 31.17183594 54.193125 31.94914062 53.375 32.75 C52.57320313 33.54277344 51.77140625 34.33554687 50.9453125 35.15234375 C48.96801594 37.10610107 46.98459263 39.05365433 45 41 C51.27 41.33 57.54 41.66 64 42 C64.495 51.405 64.495 51.405 65 61 C71.27 54.73 77.54 48.46 84 42 C87.68753843 43.84376922 89.50068924 45.2649848 92.328125 48.1328125 C93.52695312 49.34130859 93.52695312 49.34130859 94.75 50.57421875 C95.575 51.41597656 96.4 52.25773437 97.25 53.125 C98.09046875 53.97449219 98.9309375 54.82398438 99.796875 55.69921875 C101.86915683 57.79504923 103.93662393 59.89540713 106 62 C104.54254576 65.36335594 102.68882146 67.54534005 100.0859375 70.109375 C99.32539063 70.86347656 98.56484375 71.61757812 97.78125 72.39453125 C96.9871875 73.17183594 96.193125 73.94914062 95.375 74.75 C94.57320312 75.54277344 93.77140625 76.33554688 92.9453125 77.15234375 C90.96797154 79.10614493 88.98611091 81.05512103 87 83 C88.45745424 86.36335594 90.31117854 88.54534005 92.9140625 91.109375 C93.67460937 91.86347656 94.43515625 92.61757812 95.21875 93.39453125 C96.0128125 94.17183594 96.806875 94.94914062 97.625 95.75 C98.42679688 96.54277344 99.22859375 97.33554688 100.0546875 98.15234375 C102.03202846 100.10614493 104.01388909 102.05512103 106 104 C104.51346494 107.46629835 102.54277649 109.69022036 99.8671875 112.328125 C99.06152344 113.12734375 98.25585938 113.9265625 97.42578125 114.75 C96.58402344 115.575 95.74226562 116.4 94.875 117.25 C93.60076172 118.51070312 93.60076172 118.51070312 92.30078125 119.796875 C90.20495077 121.86915683 88.10459287 123.93662393 86 126 C82.63664406 124.54254576 80.45465995 122.68882146 77.890625 120.0859375 C77.13652344 119.32539063 76.38242188 118.56484375 75.60546875 117.78125 C74.82816406 116.9871875 74.05085937 116.193125 73.25 115.375 C72.45722656 114.57320313 71.66445312 113.77140625 70.84765625 112.9453125 C68.89389893 110.96801594 66.94634567 108.98459263 65 107 C64.67 113.27 64.34 119.54 64 126 C57.73 126.33 51.46 126.66 45 127 C51.27 133.27 57.54 139.54 64 146 C62.15623078 149.68753843 60.7350152 151.50068924 57.8671875 154.328125 C56.65869141 155.52695312 56.65869141 155.52695312 55.42578125 156.75 C54.58402344 157.575 53.74226563 158.4 52.875 159.25 C52.02550781 160.09046875 51.17601562 160.9309375 50.30078125 161.796875 C48.20495077 163.86915683 46.10459287 165.93662393 44 168 C40.63664406 166.54254576 38.45465995 164.68882146 35.890625 162.0859375 C35.13652344 161.32539063 34.38242188 160.56484375 33.60546875 159.78125 C32.82816406 158.9871875 32.05085938 158.193125 31.25 157.375 C30.45722656 156.57320312 29.66445312 155.77140625 28.84765625 154.9453125 C26.89385507 152.96797154 24.94487897 150.98611091 23 149 C19.63664406 150.45745424 17.45465995 152.31117854 14.890625 154.9140625 C14.13652344 155.67460937 13.38242188 156.43515625 12.60546875 157.21875 C11.82816406 158.0128125 11.05085938 158.806875 10.25 159.625 C9.45722656 160.42679688 8.66445312 161.22859375 7.84765625 162.0546875 C5.89385507 164.03202846 3.94487897 166.01388909 2 168 C-1.46629835 166.51346494 -3.69022036 164.54277649 -6.328125 161.8671875 C-7.12734375 161.06152344 -7.9265625 160.25585938 -8.75 159.42578125 C-9.575 158.58402344 -10.4 157.74226562 -11.25 156.875 C-12.51070312 155.60076172 -12.51070312 155.60076172 -13.796875 154.30078125 C-15.86915683 152.20495077 -17.93662393 150.10459287 -20 148 C-18.54254576 144.63664406 -16.68882146 142.45465995 -14.0859375 139.890625 C-13.32539062 139.13652344 -12.56484375 138.38242188 -11.78125 137.60546875 C-10.9871875 136.82816406 -10.193125 136.05085937 -9.375 135.25 C-8.57320312 134.45722656 -7.77140625 133.66445312 -6.9453125 132.84765625 C-4.96801594 130.89389893 -2.98459263 128.94634567 -1 127 C-7.27 126.67 -13.54 126.34 -20 126 C-20.33 119.73 -20.66 113.46 -21 107 C-27.27 113.27 -33.54 119.54 -40 126 C-43.68753843 124.15623078 -45.50068924 122.7350152 -48.328125 119.8671875 C-49.12734375 119.06152344 -49.9265625 118.25585938 -50.75 117.42578125 C-51.575 116.58402344 -52.4 115.74226563 -53.25 114.875 C-54.09046875 114.02550781 -54.9309375 113.17601562 -55.796875 112.30078125 C-57.86915683 110.20495077 -59.93662393 108.10459287 -62 106 C-60.54254576 102.63664406 -58.68882146 100.45465995 -56.0859375 97.890625 C-54.94511719 96.75947266 -54.94511719 96.75947266 -53.78125 95.60546875 C-52.9871875 94.82816406 -52.193125 94.05085938 -51.375 93.25 C-50.17230469 92.06083984 -50.17230469 92.06083984 -48.9453125 90.84765625 C-46.96797154 88.89385507 -44.98611091 86.94487897 -43 85 C-44.45745424 81.63664406 -46.31117854 79.45465995 -48.9140625 76.890625 C-50.05488281 75.75947266 -50.05488281 75.75947266 -51.21875 74.60546875 C-52.0128125 73.82816406 -52.806875 73.05085938 -53.625 72.25 C-54.82769531 71.06083984 -54.82769531 71.06083984 -56.0546875 69.84765625 C-58.03202846 67.89385507 -60.01388909 65.94487897 -62 64 C-60.51346494 60.53370165 -58.54277649 58.30977964 -55.8671875 55.671875 C-55.06152344 54.87265625 -54.25585938 54.0734375 -53.42578125 53.25 C-52.58402344 52.425 -51.74226563 51.6 -50.875 50.75 C-50.02550781 49.90953125 -49.17601562 49.0690625 -48.30078125 48.203125 C-46.20495077 46.13084317 -44.10459287 44.06337607 -42 42 C-38.63664406 43.45745424 -36.45465995 45.31117854 -33.890625 47.9140625 C-33.13652344 48.67460938 -32.38242187 49.43515625 -31.60546875 50.21875 C-30.82816406 51.0128125 -30.05085938 51.806875 -29.25 52.625 C-28.45722656 53.42679688 -27.66445313 54.22859375 -26.84765625 55.0546875 C-24.89389893 57.03198406 -22.94634567 59.01540737 -21 61 C-20.67 54.73 -20.34 48.46 -20 42 C-13.73 41.67 -7.46 41.34 -1 41 C-7.27 34.73 -13.54 28.46 -20 22 C-18.15623078 18.31246157 -16.7350152 16.49931076 -13.8671875 13.671875 C-12.65869141 12.47304688 -12.65869141 12.47304688 -11.42578125 11.25 C-10.16314453 10.0125 -10.16314453 10.0125 -8.875 8.75 C-8.02550781 7.90953125 -7.17601562 7.0690625 -6.30078125 6.203125 C-4.20495077 4.13084317 -2.10459287 2.06337607 0 0 Z M19.02880859 23.72827148 C18.24328613 24.51790283 17.45776367 25.30753418 16.6484375 26.12109375 C15.79765625 26.97380859 14.946875 27.82652344 14.0703125 28.70507812 C13.18085937 29.60677734 12.29140625 30.50847656 11.375 31.4375 C10.4778125 32.33533203 9.580625 33.23316406 8.65625 34.15820312 C4.43985004 37.6322271 4.43985004 37.6322271 2 42 C15.2 42 28.4 42 42 42 C37.83899192 37.14549058 33.74462765 32.56229389 29.25 28.0625 C28.67378906 27.47404297 28.09757812 26.88558594 27.50390625 26.27929688 C26.04211829 24.81239777 24.52517091 23.40088212 23 22 C20.81371476 21.78024803 20.81371476 21.78024803 19.02880859 23.72827148 Z M21 51 C20.39865234 52.44620728 20.39865234 52.44620728 19.78515625 53.92163086 C18.26950022 57.51736574 16.6698193 61.07030333 15.04296875 64.61694336 C14.35306124 66.15195528 13.68587768 67.69740356 13.04296875 69.25268555 C8.70931796 79.6822047 8.70931796 79.6822047 5 83 C-0.14061114 85.06291601 -5.60103264 84.58668227 -11 84 C-7.74446996 86.70538384 -4.42551935 88.19415314 -0.51953125 89.79296875 C19.27646586 98.2797953 19.27646586 98.2797953 22.40673828 103.22021484 C23.79047688 107.96138877 23.20184298 112.27847399 22 117 C24.70538384 113.74446996 26.19415314 110.42551935 27.79296875 106.51953125 C36.2797953 86.72353414 36.2797953 86.72353414 41.22021484 83.59326172 C45.96138877 82.20952312 50.27847399 82.79815702 55 84 C51.74446996 81.29461616 48.42551935 79.80584686 44.51953125 78.20703125 C24.72353414 69.7202047 24.72353414 69.7202047 21.59326172 64.77978516 C20.20952312 60.03861123 20.79815702 55.72152601 22 51 C21.67 51 21.34 51 21 51 Z M-22.85766602 65.74414062 C-23.64842529 66.54013672 -24.43918457 67.33613281 -25.25390625 68.15625 C-26.10791016 69.01347656 -26.96191406 69.87070313 -27.84179688 70.75390625 C-28.73962891 71.66011719 -29.63746094 72.56632812 -30.5625 73.5 C-31.91504883 74.85931641 -31.91504883 74.85931641 -33.29492188 76.24609375 C-35.53218341 78.49519265 -37.76708747 80.74658467 -40 83 C-38.5450489 86.34784108 -36.70194509 88.54377373 -34.12109375 91.109375 C-32.98704102 92.24052734 -32.98704102 92.24052734 -31.83007812 93.39453125 C-31.04052734 94.17183594 -30.25097656 94.94914062 -29.4375 95.75 C-28.64408203 96.54277344 -27.85066406 97.33554688 -27.03320312 98.15234375 C-23.93530028 101.90677467 -23.93530028 101.90677467 -20 104 C-20 90.8 -20 77.6 -20 64 C-21.30318244 63.88592007 -21.30318244 63.88592007 -22.85766602 65.74414062 Z M64 64 C64 77.2 64 90.4 64 104 C69.41969335 99.40819554 69.41969335 99.40819554 74.52734375 94.5703125 C75.37329102 93.71953125 75.37329102 93.71953125 76.23632812 92.8515625 C76.79771484 92.28179687 77.35910156 91.71203125 77.9375 91.125 C78.52595703 90.53203125 79.11441406 89.9390625 79.72070312 89.328125 C81.14947674 87.88773534 82.57508132 86.4442033 84 85 C82.5450489 81.65215892 80.70194509 79.45622627 78.12109375 76.890625 C76.98704102 75.75947266 76.98704102 75.75947266 75.83007812 74.60546875 C75.04052734 73.82816406 74.25097656 73.05085938 73.4375 72.25 C72.64408203 71.45722656 71.85066406 70.66445312 71.03320312 69.84765625 C67.93530028 66.09322533 67.93530028 66.09322533 64 64 Z M2 126 C6.59180446 131.41969335 6.59180446 131.41969335 11.4296875 136.52734375 C11.996875 137.09130859 12.5640625 137.65527344 13.1484375 138.23632812 C13.71820313 138.79771484 14.28796875 139.35910156 14.875 139.9375 C15.46796875 140.52595703 16.0609375 141.11441406 16.671875 141.72070312 C18.11226466 143.14947674 19.5557967 144.57508132 21 146 C24.34784108 144.5450489 26.54377373 142.70194509 29.109375 140.12109375 C29.86347656 139.36505859 30.61757812 138.60902344 31.39453125 137.83007812 C32.17183594 137.04052734 32.94914062 136.25097656 33.75 135.4375 C34.54277344 134.64408203 35.33554688 133.85066406 36.15234375 133.03320312 C39.90677467 129.93530028 39.90677467 129.93530028 42 126 C28.8 126 15.6 126 2 126 Z " fill="#839DD5" transform="translate(78,16)"/>
<path d="M0 0 C3.36335594 1.45745424 5.54534005 3.31117854 8.109375 5.9140625 C8.86347656 6.67460937 9.61757812 7.43515625 10.39453125 8.21875 C11.17183594 9.0128125 11.94914062 9.806875 12.75 10.625 C13.54277344 11.42679688 14.33554688 12.22859375 15.15234375 13.0546875 C17.10614493 15.03202846 19.05512103 17.01388909 21 19 C24.36335594 17.54254576 26.54534005 15.68882146 29.109375 13.0859375 C29.86347656 12.32539063 30.61757812 11.56484375 31.39453125 10.78125 C32.17183594 9.9871875 32.94914062 9.193125 33.75 8.375 C34.54277344 7.57320312 35.33554688 6.77140625 36.15234375 5.9453125 C38.10614493 3.96797154 40.05512103 1.98611091 42 0 C45.46629835 1.48653506 47.69022036 3.45722351 50.328125 6.1328125 C51.12734375 6.93847656 51.9265625 7.74414062 52.75 8.57421875 C53.575 9.41597656 54.4 10.25773438 55.25 11.125 C56.09046875 11.97449219 56.9309375 12.82398438 57.796875 13.69921875 C59.86915683 15.79504923 61.93662393 17.89540713 64 20 C62.51346494 23.46629835 60.54277649 25.69022036 57.8671875 28.328125 C57.06152344 29.12734375 56.25585938 29.9265625 55.42578125 30.75 C54.58402344 31.575 53.74226563 32.4 52.875 33.25 C52.02550781 34.09046875 51.17601562 34.9309375 50.30078125 35.796875 C48.20495077 37.86915683 46.10459287 39.93662393 44 42 C40.63664406 40.54254576 38.45465995 38.68882146 35.890625 36.0859375 C35.13652344 35.32539063 34.38242188 34.56484375 33.60546875 33.78125 C32.82816406 32.9871875 32.05085938 32.193125 31.25 31.375 C30.45722656 30.57320312 29.66445312 29.77140625 28.84765625 28.9453125 C26.89385507 26.96797154 24.94487897 24.98611091 23 23 C19.63664406 24.45745424 17.45465995 26.31117854 14.890625 28.9140625 C14.13652344 29.67460937 13.38242188 30.43515625 12.60546875 31.21875 C11.82816406 32.0128125 11.05085938 32.806875 10.25 33.625 C9.45722656 34.42679688 8.66445312 35.22859375 7.84765625 36.0546875 C5.89385507 38.03202846 3.94487897 40.01388909 2 42 C-1.46629835 40.51346494 -3.69022036 38.54277649 -6.328125 35.8671875 C-7.12734375 35.06152344 -7.9265625 34.25585938 -8.75 33.42578125 C-9.9875 32.16314453 -9.9875 32.16314453 -11.25 30.875 C-12.09046875 30.02550781 -12.9309375 29.17601562 -13.796875 28.30078125 C-15.86915683 26.20495077 -17.93662393 24.10459287 -20 22 C-18.51346494 18.53370165 -16.54277649 16.30977964 -13.8671875 13.671875 C-12.65869141 12.47304687 -12.65869141 12.47304687 -11.42578125 11.25 C-10.58402344 10.425 -9.74226563 9.6 -8.875 8.75 C-8.02550781 7.90953125 -7.17601563 7.0690625 -6.30078125 6.203125 C-4.20495077 4.13084317 -2.10459287 2.06337607 0 0 Z " fill="#5B5B5B" transform="translate(78,142)"/>
<path d="M0 0 C3.46629835 1.48653506 5.69022036 3.45722351 8.328125 6.1328125 C9.12734375 6.93847656 9.9265625 7.74414062 10.75 8.57421875 C11.575 9.41597656 12.4 10.25773437 13.25 11.125 C14.09046875 11.97449219 14.9309375 12.82398437 15.796875 13.69921875 C17.86915683 15.79504923 19.93662393 17.89540713 22 20 C20.54254576 23.36335594 18.68882146 25.54534005 16.0859375 28.109375 C15.32539063 28.86347656 14.56484375 29.61757812 13.78125 30.39453125 C12.9871875 31.17183594 12.193125 31.94914062 11.375 32.75 C10.57320312 33.54277344 9.77140625 34.33554688 8.9453125 35.15234375 C6.96797154 37.10614493 4.98611091 39.05512103 3 41 C4.45745424 44.36335594 6.31117854 46.54534005 8.9140625 49.109375 C9.67460937 49.86347656 10.43515625 50.61757812 11.21875 51.39453125 C12.0128125 52.17183594 12.806875 52.94914062 13.625 53.75 C14.42679688 54.54277344 15.22859375 55.33554688 16.0546875 56.15234375 C18.03202846 58.10614493 20.01388909 60.05512103 22 62 C20.51346494 65.46629835 18.54277649 67.69022036 15.8671875 70.328125 C15.06152344 71.12734375 14.25585938 71.9265625 13.42578125 72.75 C12.58402344 73.575 11.74226563 74.4 10.875 75.25 C10.02550781 76.09046875 9.17601562 76.9309375 8.30078125 77.796875 C6.20495077 79.86915683 4.10459287 81.93662393 2 84 C-1.46629835 82.51346494 -3.69022036 80.54277649 -6.328125 77.8671875 C-7.12734375 77.06152344 -7.9265625 76.25585938 -8.75 75.42578125 C-9.575 74.58402344 -10.4 73.74226563 -11.25 72.875 C-12.09046875 72.02550781 -12.9309375 71.17601562 -13.796875 70.30078125 C-15.86915683 68.20495077 -17.93662393 66.10459287 -20 64 C-18.54254576 60.63664406 -16.68882146 58.45465995 -14.0859375 55.890625 C-13.32539063 55.13652344 -12.56484375 54.38242188 -11.78125 53.60546875 C-10.9871875 52.82816406 -10.193125 52.05085938 -9.375 51.25 C-8.57320312 50.45722656 -7.77140625 49.66445312 -6.9453125 48.84765625 C-4.96797154 46.89385507 -2.98611091 44.94487897 -1 43 C-2.45745424 39.63664406 -4.31117854 37.45465995 -6.9140625 34.890625 C-7.67460937 34.13652344 -8.43515625 33.38242188 -9.21875 32.60546875 C-10.0128125 31.82816406 -10.806875 31.05085938 -11.625 30.25 C-12.42679688 29.45722656 -13.22859375 28.66445312 -14.0546875 27.84765625 C-16.03202846 25.89385507 -18.01388909 23.94487897 -20 22 C-18.51346494 18.53370165 -16.54277649 16.30977964 -13.8671875 13.671875 C-12.65869141 12.47304687 -12.65869141 12.47304687 -11.42578125 11.25 C-10.58402344 10.425 -9.74226562 9.6 -8.875 8.75 C-8.02550781 7.90953125 -7.17601562 7.0690625 -6.30078125 6.203125 C-4.20495077 4.13084317 -2.10459287 2.06337607 0 0 Z " fill="#5B5B5B" transform="translate(162,58)"/>
<path d="M0 0 C3.46629835 1.48653506 5.69022036 3.45722351 8.328125 6.1328125 C9.12734375 6.93847656 9.9265625 7.74414062 10.75 8.57421875 C11.575 9.41597656 12.4 10.25773437 13.25 11.125 C14.09046875 11.97449219 14.9309375 12.82398437 15.796875 13.69921875 C17.86915683 15.79504923 19.93662393 17.89540713 22 20 C20.54254576 23.36335594 18.68882146 25.54534005 16.0859375 28.109375 C15.32539062 28.86347656 14.56484375 29.61757812 13.78125 30.39453125 C12.9871875 31.17183594 12.193125 31.94914062 11.375 32.75 C10.57320312 33.54277344 9.77140625 34.33554688 8.9453125 35.15234375 C6.96797154 37.10614493 4.98611091 39.05512103 3 41 C4.45745424 44.36335594 6.31117854 46.54534005 8.9140625 49.109375 C9.67460938 49.86347656 10.43515625 50.61757812 11.21875 51.39453125 C12.0128125 52.17183594 12.806875 52.94914062 13.625 53.75 C14.42679688 54.54277344 15.22859375 55.33554688 16.0546875 56.15234375 C18.03202846 58.10614493 20.01388909 60.05512103 22 62 C20.51346494 65.46629835 18.54277649 67.69022036 15.8671875 70.328125 C15.06152344 71.12734375 14.25585938 71.9265625 13.42578125 72.75 C12.58402344 73.575 11.74226563 74.4 10.875 75.25 C10.02550781 76.09046875 9.17601563 76.9309375 8.30078125 77.796875 C6.20495077 79.86915683 4.10459287 81.93662393 2 84 C-1.46629835 82.51346494 -3.69022036 80.54277649 -6.328125 77.8671875 C-7.12734375 77.06152344 -7.9265625 76.25585938 -8.75 75.42578125 C-9.575 74.58402344 -10.4 73.74226563 -11.25 72.875 C-12.09046875 72.02550781 -12.9309375 71.17601562 -13.796875 70.30078125 C-15.86915683 68.20495077 -17.93662393 66.10459287 -20 64 C-18.54254576 60.63664406 -16.68882146 58.45465995 -14.0859375 55.890625 C-13.32539063 55.13652344 -12.56484375 54.38242188 -11.78125 53.60546875 C-10.9871875 52.82816406 -10.193125 52.05085938 -9.375 51.25 C-8.57320312 50.45722656 -7.77140625 49.66445312 -6.9453125 48.84765625 C-4.96797154 46.89385507 -2.98611091 44.94487897 -1 43 C-2.45745424 39.63664406 -4.31117854 37.45465995 -6.9140625 34.890625 C-7.67460937 34.13652344 -8.43515625 33.38242188 -9.21875 32.60546875 C-10.0128125 31.82816406 -10.806875 31.05085938 -11.625 30.25 C-12.42679688 29.45722656 -13.22859375 28.66445312 -14.0546875 27.84765625 C-16.03202846 25.89385507 -18.01388909 23.94487897 -20 22 C-18.51346494 18.53370165 -16.54277649 16.30977964 -13.8671875 13.671875 C-12.65869141 12.47304687 -12.65869141 12.47304687 -11.42578125 11.25 C-10.58402344 10.425 -9.74226563 9.6 -8.875 8.75 C-8.02550781 7.90953125 -7.17601562 7.0690625 -6.30078125 6.203125 C-4.20495077 4.13084317 -2.10459287 2.06337607 0 0 Z " fill="#5B5B5B" transform="translate(36,58)"/>
<path d="M0 0 C3.36335594 1.45745424 5.54534005 3.31117854 8.109375 5.9140625 C8.86347656 6.67460937 9.61757812 7.43515625 10.39453125 8.21875 C11.17183594 9.0128125 11.94914062 9.806875 12.75 10.625 C13.54277344 11.42679688 14.33554688 12.22859375 15.15234375 13.0546875 C17.10614493 15.03202846 19.05512103 17.01388909 21 19 C24.36335594 17.54254576 26.54534005 15.68882146 29.109375 13.0859375 C29.86347656 12.32539063 30.61757812 11.56484375 31.39453125 10.78125 C32.17183594 9.9871875 32.94914062 9.193125 33.75 8.375 C34.54277344 7.57320312 35.33554688 6.77140625 36.15234375 5.9453125 C38.10614493 3.96797154 40.05512103 1.98611091 42 0 C45.46629835 1.48653506 47.69022036 3.45722351 50.328125 6.1328125 C51.12734375 6.93847656 51.9265625 7.74414062 52.75 8.57421875 C53.575 9.41597656 54.4 10.25773437 55.25 11.125 C56.09046875 11.97449219 56.9309375 12.82398438 57.796875 13.69921875 C59.86915683 15.79504923 61.93662393 17.89540713 64 20 C62.51346494 23.46629835 60.54277649 25.69022036 57.8671875 28.328125 C57.06152344 29.12734375 56.25585938 29.9265625 55.42578125 30.75 C54.58402344 31.575 53.74226563 32.4 52.875 33.25 C52.02550781 34.09046875 51.17601562 34.9309375 50.30078125 35.796875 C48.20495077 37.86915683 46.10459287 39.93662393 44 42 C40.63664406 40.54254576 38.45465995 38.68882146 35.890625 36.0859375 C35.13652344 35.32539062 34.38242188 34.56484375 33.60546875 33.78125 C32.82816406 32.9871875 32.05085938 32.193125 31.25 31.375 C30.45722656 30.57320312 29.66445312 29.77140625 28.84765625 28.9453125 C26.89385507 26.96797154 24.94487897 24.98611091 23 23 C19.63664406 24.45745424 17.45465995 26.31117854 14.890625 28.9140625 C14.13652344 29.67460938 13.38242188 30.43515625 12.60546875 31.21875 C11.82816406 32.0128125 11.05085938 32.806875 10.25 33.625 C9.45722656 34.42679688 8.66445312 35.22859375 7.84765625 36.0546875 C5.89385507 38.03202846 3.94487897 40.01388909 2 42 C-1.46629835 40.51346494 -3.69022036 38.54277649 -6.328125 35.8671875 C-7.12734375 35.06152344 -7.9265625 34.25585938 -8.75 33.42578125 C-9.9875 32.16314453 -9.9875 32.16314453 -11.25 30.875 C-12.09046875 30.02550781 -12.9309375 29.17601563 -13.796875 28.30078125 C-15.86915683 26.20495077 -17.93662393 24.10459287 -20 22 C-18.51346494 18.53370165 -16.54277649 16.30977964 -13.8671875 13.671875 C-12.65869141 12.47304688 -12.65869141 12.47304688 -11.42578125 11.25 C-10.58402344 10.425 -9.74226563 9.6 -8.875 8.75 C-8.02550781 7.90953125 -7.17601563 7.0690625 -6.30078125 6.203125 C-4.20495077 4.13084317 -2.10459287 2.06337607 0 0 Z " fill="#5B5B5B" transform="translate(78,16)"/>
<path d="M0 0 C0 13.86 0 27.72 0 42 C-13.86 42 -27.72 42 -42 42 C-35.24828355 34.12299748 -35.24828355 34.12299748 -32.12182617 30.99243164 C-31.42478073 30.29223404 -30.72773529 29.59203644 -30.00956726 28.87062073 C-28.912351 27.77644081 -28.912351 27.77644081 -27.79296875 26.66015625 C-27.02696854 25.89319931 -26.26096832 25.12624237 -25.47175598 24.33604431 C-23.86529264 22.72890453 -22.25758205 21.12301059 -20.64868164 19.51831055 C-18.17412377 17.04915296 -15.70500357 14.57464675 -13.23632812 12.09960938 C-11.67219594 10.5361372 -10.107754 8.97297482 -8.54296875 7.41015625 C-7.80137009 6.66653336 -7.05977142 5.92291046 -6.29570007 5.15675354 C-5.61441544 4.47862106 -4.9331308 3.80048859 -4.23120117 3.10180664 C-3.32902107 2.20081993 -3.32902107 2.20081993 -2.40861511 1.28163147 C-1 0 -1 0 0 0 Z " fill="#849ED6" transform="translate(184,142)"/>
<path d="M0 0 C7.87700252 6.75171645 7.87700252 6.75171645 11.00756836 9.87817383 C11.70776596 10.57521927 12.40796356 11.27226471 13.12937927 11.99043274 C13.85883255 12.72191025 14.58828583 13.45338776 15.33984375 14.20703125 C16.10680069 14.97303146 16.87375763 15.73903168 17.66395569 16.52824402 C19.27109547 18.13470736 20.87698941 19.74241795 22.48168945 21.35131836 C24.95084704 23.82587623 27.42535325 26.29499643 29.90039062 28.76367188 C31.4638628 30.32780406 33.02702518 31.892246 34.58984375 33.45703125 C35.33346664 34.19862991 36.07708954 34.94022858 36.84324646 35.70429993 C37.52137894 36.38558456 38.19951141 37.0668692 38.89819336 37.76879883 C39.79918007 38.67097893 39.79918007 38.67097893 40.71836853 39.59138489 C42 41 42 41 42 42 C28.14 42 14.28 42 0 42 C0 28.14 0 14.28 0 0 Z " fill="#849ED6" transform="translate(16,142)"/>
<path d="M0 0 C13.86 0 27.72 0 42 0 C42 13.86 42 27.72 42 42 C34.12299748 35.24828355 34.12299748 35.24828355 30.99243164 32.12182617 C30.29223404 31.42478073 29.59203644 30.72773529 28.87062073 30.00956726 C28.14116745 29.27808975 27.41171417 28.54661224 26.66015625 27.79296875 C25.89319931 27.02696854 25.12624237 26.26096832 24.33604431 25.47175598 C22.72890453 23.86529264 21.12301059 22.25758205 19.51831055 20.64868164 C17.04915296 18.17412377 14.57464675 15.70500357 12.09960938 13.23632812 C10.5361372 11.67219594 8.97297482 10.107754 7.41015625 8.54296875 C6.29472191 7.43057076 6.29472191 7.43057076 5.15675354 6.29570007 C4.47862106 5.61441544 3.80048859 4.9331308 3.10180664 4.23120117 C2.50114883 3.62974777 1.90049103 3.02829437 1.28163147 2.40861511 C0 1 0 1 0 0 Z " fill="#849ED6" transform="translate(142,16)"/>
<path d="M0 0 C13.86 0 27.72 0 42 0 C35.24828355 7.87700252 35.24828355 7.87700252 32.12182617 11.00756836 C31.42478073 11.70776596 30.72773529 12.40796356 30.00956726 13.12937927 C29.27808975 13.85883255 28.54661224 14.58828583 27.79296875 15.33984375 C27.02696854 16.10680069 26.26096832 16.87375763 25.47175598 17.66395569 C23.86529264 19.27109547 22.25758205 20.87698941 20.64868164 22.48168945 C18.17412377 24.95084704 15.70500357 27.42535325 13.23632812 29.90039062 C11.67219594 31.4638628 10.107754 33.02702518 8.54296875 34.58984375 C7.80137009 35.33346664 7.05977142 36.07708954 6.29570007 36.84324646 C5.61441544 37.52137894 4.9331308 38.19951141 4.23120117 38.89819336 C3.32902107 39.79918007 3.32902107 39.79918007 2.40861511 40.71836853 C1 42 1 42 0 42 C0 28.14 0 14.28 0 0 Z " fill="#849ED6" transform="translate(16,16)"/>
</svg>
